<?xml version="1.0" standalone="no"?>
<!DOCTYPE svg PUBLIC "-//W3C//DTD SVG 1.1//EN"
  "http://www.w3.org/Graphics/SVG/1.1/DTD/svg11.dtd">
<svg xmlns="http://www.w3.org/2000/svg" version="1.1"
     width="706px" height="580px" viewBox="-15 -315 706 590">
  <defs>
    <style type="text/css"><![CDATA[
      .markmap-node {
        cursor: pointer;
      }

      .markmap-node-circle {
        fill: #fff;
        stroke-width: 1.5px;
      }

      .markmap-node-text {
        fill:  #000;
        font: 10px sans-serif;
      }

      .markmap-link {
        fill: none;
      }
    ]]></style>
  </defs>
  <g><path class="markmap-link" stroke="#1f77b4" stroke-width="1.5" d="M271.60546875,260C301.60546875,260 301.60546875,260 331.60546875,260"></path><path class="markmap-link" stroke="#1f77b4" stroke-width="1.5" d="M276.0537109375,240C306.0537109375,240 306.0537109375,240 336.0537109375,240"></path><path class="markmap-link" stroke="#1f77b4" stroke-width="1.5" d="M271.60546875,220C301.60546875,220 301.60546875,220 331.60546875,220"></path><path class="markmap-link" stroke="#1f77b4" stroke-width="1.5" d="M150.1376953125,240C180.1376953125,240 180.1376953125,220 210.1376953125,220"></path><path class="markmap-link" stroke="#1f77b4" stroke-width="1.5" d="M150.1376953125,240C180.1376953125,240 180.1376953125,240 210.1376953125,240"></path><path class="markmap-link" stroke="#1f77b4" stroke-width="1.5" d="M150.1376953125,240C180.1376953125,240 180.1376953125,260 210.1376953125,260"></path><path class="markmap-link" stroke="#aec7e8" stroke-width="1.5" d="M174.0341796875,185C204.0341796875,185 204.0341796875,170 234.0341796875,170"></path><path class="markmap-link" stroke="#aec7e8" stroke-width="1.5" d="M174.0341796875,185C204.0341796875,185 204.0341796875,185 234.0341796875,185"></path><path class="markmap-link" stroke="#aec7e8" stroke-width="1.5" d="M174.0341796875,185C204.0341796875,185 204.0341796875,200 234.0341796875,200"></path><path class="markmap-link" stroke="#ff7f0e" stroke-width="1.5" d="M163.47265625,127.5C193.47265625,127.5 193.47265625,105 223.47265625,105"></path><path class="markmap-link" stroke="#ff7f0e" stroke-width="1.5" d="M163.47265625,127.5C193.47265625,127.5 193.47265625,120 223.47265625,120"></path><path class="markmap-link" stroke="#ff7f0e" stroke-width="1.5" d="M163.47265625,127.5C193.47265625,127.5 193.47265625,135 223.47265625,135"></path><path class="markmap-link" stroke="#ff7f0e" stroke-width="1.5" d="M163.47265625,127.5C193.47265625,127.5 193.47265625,150 223.47265625,150"></path><path class="markmap-link" stroke="#ffbb78" stroke-width="1.5" d="M304.3935546875,50C334.3935546875,50 334.3935546875,35 364.3935546875,35"></path><path class="markmap-link" stroke="#ffbb78" stroke-width="1.5" d="M304.3935546875,50C334.3935546875,50 334.3935546875,50 364.3935546875,50"></path><path class="markmap-link" stroke="#ffbb78" stroke-width="1.5" d="M304.3935546875,50C334.3935546875,50 334.3935546875,65 364.3935546875,65"></path><path class="markmap-link" stroke="#ffbb78" stroke-width="1.5" d="M141.236328125,67.5C171.236328125,67.5 171.236328125,50 201.236328125,50"></path><path class="markmap-link" stroke="#ffbb78" stroke-width="1.5" d="M141.236328125,67.5C171.236328125,67.5 171.236328125,70 201.236328125,70"></path><path class="markmap-link" stroke="#ffbb78" stroke-width="1.5" d="M141.236328125,67.5C171.236328125,67.5 171.236328125,85 201.236328125,85"></path><path class="markmap-link" stroke="#2ca02c" stroke-width="1.5" d="M288.275390625,15C318.275390625,15 318.275390625,15 348.275390625,15"></path><path class="markmap-link" stroke="#2ca02c" stroke-width="1.5" d="M280.4921875,-27.5C310.4921875,-27.5 310.4921875,-50 340.4921875,-50"></path><path class="markmap-link" stroke="#2ca02c" stroke-width="1.5" d="M280.4921875,-27.5C310.4921875,-27.5 310.4921875,-35 340.4921875,-35"></path><path class="markmap-link" stroke="#2ca02c" stroke-width="1.5" d="M280.4921875,-27.5C310.4921875,-27.5 310.4921875,-20 340.4921875,-20"></path><path class="markmap-link" stroke="#2ca02c" stroke-width="1.5" d="M280.4921875,-27.5C310.4921875,-27.5 310.4921875,-5 340.4921875,-5"></path><path class="markmap-link" stroke="#2ca02c" stroke-width="1.5" d="M477.208984375,-70C507.208984375,-70 507.208984375,-70 537.208984375,-70"></path><path class="markmap-link" stroke="#2ca02c" stroke-width="1.5" d="M308.2802734375,-95C338.2802734375,-95 338.2802734375,-120 368.2802734375,-120"></path><path class="markmap-link" stroke="#2ca02c" stroke-width="1.5" d="M308.2802734375,-95C338.2802734375,-95 338.2802734375,-105 368.2802734375,-105"></path><path class="markmap-link" stroke="#2ca02c" stroke-width="1.5" d="M308.2802734375,-95C338.2802734375,-95 338.2802734375,-90 368.2802734375,-90"></path><path class="markmap-link" stroke="#2ca02c" stroke-width="1.5" d="M308.2802734375,-95C338.2802734375,-95 338.2802734375,-70 368.2802734375,-70"></path><path class="markmap-link" stroke="#2ca02c" stroke-width="1.5" d="M248.8076171875,-155C278.8076171875,-155 278.8076171875,-170 308.8076171875,-170"></path><path class="markmap-link" stroke="#2ca02c" stroke-width="1.5" d="M248.8076171875,-155C278.8076171875,-155 278.8076171875,-155 308.8076171875,-155"></path><path class="markmap-link" stroke="#2ca02c" stroke-width="1.5" d="M248.8076171875,-155C278.8076171875,-155 278.8076171875,-140 308.8076171875,-140"></path><path class="markmap-link" stroke="#2ca02c" stroke-width="1.5" d="M154.5810546875,-70C184.5810546875,-70 184.5810546875,-155 214.5810546875,-155"></path><path class="markmap-link" stroke="#2ca02c" stroke-width="1.5" d="M154.5810546875,-70C184.5810546875,-70 184.5810546875,-95 214.5810546875,-95"></path><path class="markmap-link" stroke="#2ca02c" stroke-width="1.5" d="M154.5810546875,-70C184.5810546875,-70 184.5810546875,-27.5 214.5810546875,-27.5"></path><path class="markmap-link" stroke="#2ca02c" stroke-width="1.5" d="M154.5810546875,-70C184.5810546875,-70 184.5810546875,15 214.5810546875,15"></path><path class="markmap-link" stroke="#98df8a" stroke-width="1.5" d="M405.0087890625,-210C435.0087890625,-210 435.0087890625,-232.5 465.0087890625,-232.5"></path><path class="markmap-link" stroke="#98df8a" stroke-width="1.5" d="M405.0087890625,-210C435.0087890625,-210 435.0087890625,-217.5 465.0087890625,-217.5"></path><path class="markmap-link" stroke="#98df8a" stroke-width="1.5" d="M405.0087890625,-210C435.0087890625,-210 435.0087890625,-202.5 465.0087890625,-202.5"></path><path class="markmap-link" stroke="#98df8a" stroke-width="1.5" d="M405.0087890625,-210C435.0087890625,-210 435.0087890625,-187.5 465.0087890625,-187.5"></path><path class="markmap-link" stroke="#98df8a" stroke-width="1.5" d="M433.919921875,-260C463.919921875,-260 463.919921875,-267.5 493.919921875,-267.5"></path><path class="markmap-link" stroke="#98df8a" stroke-width="1.5" d="M433.919921875,-260C463.919921875,-260 463.919921875,-252.5 493.919921875,-252.5"></path><path class="markmap-link" stroke="#98df8a" stroke-width="1.5" d="M191.8271484375,-240C221.8271484375,-240 221.8271484375,-290 251.8271484375,-290"></path><path class="markmap-link" stroke="#98df8a" stroke-width="1.5" d="M191.8271484375,-240C221.8271484375,-240 221.8271484375,-275 251.8271484375,-275"></path><path class="markmap-link" stroke="#98df8a" stroke-width="1.5" d="M191.8271484375,-240C221.8271484375,-240 221.8271484375,-260 251.8271484375,-260"></path><path class="markmap-link" stroke="#98df8a" stroke-width="1.5" d="M191.8271484375,-240C221.8271484375,-240 221.8271484375,-210 251.8271484375,-210"></path><path class="markmap-link" stroke="#98df8a" stroke-width="1.5" d="M191.8271484375,-240C221.8271484375,-240 221.8271484375,-190 251.8271484375,-190"></path><path class="markmap-link" stroke="#98df8a" stroke-width="2" d="M57.0146484375,0C87.0146484375,0 87.0146484375,-240 117.0146484375,-240"></path><path class="markmap-link" stroke="#2ca02c" stroke-width="2" d="M57.0146484375,0C87.0146484375,0 87.0146484375,-70 117.0146484375,-70"></path><path class="markmap-link" stroke="#ffbb78" stroke-width="2" d="M57.0146484375,0C87.0146484375,0 87.0146484375,67.5 117.0146484375,67.5"></path><path class="markmap-link" stroke="#ff7f0e" stroke-width="2" d="M57.0146484375,0C87.0146484375,0 87.0146484375,127.5 117.0146484375,127.5"></path><path class="markmap-link" stroke="#aec7e8" stroke-width="2" d="M57.0146484375,0C87.0146484375,0 87.0146484375,185 117.0146484375,185"></path><path class="markmap-link" stroke="#1f77b4" stroke-width="2" d="M57.0146484375,0C87.0146484375,0 87.0146484375,240 117.0146484375,240"></path><g class="markmap-node" transform="translate(331.60546875,260)"><rect class="markmap-node-rect" y="-0.75" x="-1" width="129.0537109375" height="1.5" fill="#1f77b4"></rect><circle class="markmap-node-circle" cx="127.0537109375" stroke="#1f77b4" r="4.5" style="display: none;"></circle><text class="markmap-node-text" x="10" dy="-5" text-anchor="start" style="fill-opacity: 1;">Sales Rise by 18% (June)</text></g><g class="markmap-node" transform="translate(210.1376953125,260)"><rect class="markmap-node-rect" y="-0.75" x="-1" width="63.4677734375" height="1.5" fill="#1f77b4"></rect><circle class="markmap-node-circle" cx="61.4677734375" stroke="#1f77b4" r="4.5"></circle><text class="markmap-node-text" x="10" dy="-5" text-anchor="start" style="fill-opacity: 1;">Retail Data</text></g><g class="markmap-node" transform="translate(336.0537109375,240)"><rect class="markmap-node-rect" y="-0.75" x="-1" width="211.3291015625" height="1.5" fill="#1f77b4"></rect><circle class="markmap-node-circle" cx="209.3291015625" stroke="#1f77b4" r="4.5" style="display: none;"></circle><text class="markmap-node-text" x="10" dy="-5" text-anchor="start" style="fill-opacity: 1;">Jobs Rebound, Gloomy August Ahead (July)</text></g><g class="markmap-node" transform="translate(210.1376953125,240)"><rect class="markmap-node-rect" y="-0.75" x="-1" width="67.916015625" height="1.5" fill="#1f77b4"></rect><circle class="markmap-node-circle" cx="65.916015625" stroke="#1f77b4" r="4.5"></circle><text class="markmap-node-text" x="10" dy="-5" text-anchor="start" style="fill-opacity: 1;">Jobs Report</text></g><g class="markmap-node" transform="translate(331.60546875,220)"><rect class="markmap-node-rect" y="-0.75" x="-1" width="131.275390625" height="1.5" fill="#1f77b4"></rect><circle class="markmap-node-circle" cx="129.275390625" stroke="#1f77b4" r="4.5" style="display: none;"></circle><text class="markmap-node-text" x="10" dy="-5" text-anchor="start" style="fill-opacity: 1;">Covid Cases Surge (June)</text></g><g class="markmap-node" transform="translate(210.1376953125,220)"><rect class="markmap-node-rect" y="-0.75" x="-1" width="63.4677734375" height="1.5" fill="#1f77b4"></rect><circle class="markmap-node-circle" cx="61.4677734375" stroke="#1f77b4" r="4.5"></circle><text class="markmap-node-text" x="10" dy="-5" text-anchor="start" style="fill-opacity: 1;">Covid Data</text></g><g class="markmap-node" transform="translate(117.0146484375,240)"><rect class="markmap-node-rect" y="-1" x="-1" width="35.123046875" height="2" fill="#1f77b4"></rect><circle class="markmap-node-circle" cx="33.123046875" stroke="#1f77b4" r="4.5"></circle><text class="markmap-node-text" x="10" dy="-5" text-anchor="start" style="fill-opacity: 1;">Data</text></g><g class="markmap-node" transform="translate(234.0341796875,200)"><rect class="markmap-node-rect" y="-0.75" x="-1" width="184.09765625" height="1.5" fill="#aec7e8"></rect><circle class="markmap-node-circle" cx="182.09765625" stroke="#aec7e8" r="4.5" style="display: none;"></circle><text class="markmap-node-text" x="10" dy="-5" text-anchor="start" style="fill-opacity: 1;">Probes Against Exchange Data (June)</text></g><g class="markmap-node" transform="translate(234.0341796875,185)"><rect class="markmap-node-rect" y="-0.75" x="-1" width="170.796875" height="1.5" fill="#aec7e8"></rect><circle class="markmap-node-circle" cx="168.796875" stroke="#aec7e8" r="4.5" style="display: none;"></circle><text class="markmap-node-text" x="10" dy="-5" text-anchor="start" style="fill-opacity: 1;">World's Best Big Lender, DB (June)</text></g><g class="markmap-node" transform="translate(234.0341796875,170)"><rect class="markmap-node-rect" y="-0.75" x="-1" width="186.490234375" height="1.5" fill="#aec7e8"></rect><circle class="markmap-node-circle" cx="184.490234375" stroke="#aec7e8" r="4.5" style="display: none;"></circle><text class="markmap-node-text" x="10" dy="-5" text-anchor="start" style="fill-opacity: 1;">Banks Warned Before Outbreak (June)</text></g><g class="markmap-node" transform="translate(117.0146484375,185)"><rect class="markmap-node-rect" y="-1" x="-1" width="59.01953125" height="2" fill="#aec7e8"></rect><circle class="markmap-node-circle" cx="57.01953125" stroke="#aec7e8" r="4.5"></circle><text class="markmap-node-text" x="10" dy="-5" text-anchor="start" style="fill-opacity: 1;">Financials</text></g><g class="markmap-node" transform="translate(223.47265625,150)"><rect class="markmap-node-rect" y="-0.75" x="-1" width="136.08984375" height="1.5" fill="#ff7f0e"></rect><circle class="markmap-node-circle" cx="134.08984375" stroke="#ff7f0e" r="4.5" style="display: none;"></circle><text class="markmap-node-text" x="10" dy="-5" text-anchor="start" style="fill-opacity: 1;">Potential New Tariffs (June)</text></g><g class="markmap-node" transform="translate(223.47265625,135)"><rect class="markmap-node-rect" y="-0.75" x="-1" width="170.0009765625" height="1.5" fill="#ff7f0e"></rect><circle class="markmap-node-circle" cx="168.0009765625" stroke="#ff7f0e" r="4.5" style="display: none;"></circle><text class="markmap-node-text" x="10" dy="-5" text-anchor="start" style="fill-opacity: 1;">North Korea blows up Office (June)</text></g><g class="markmap-node" transform="translate(223.47265625,120)"><rect class="markmap-node-rect" y="-0.75" x="-1" width="147.37890625" height="1.5" fill="#ff7f0e"></rect><circle class="markmap-node-circle" cx="145.37890625" stroke="#ff7f0e" r="4.5" style="display: none;"></circle><text class="markmap-node-text" x="10" dy="-5" text-anchor="start" style="fill-opacity: 1;">Bezos Willing to Testify (June)</text></g><g class="markmap-node" transform="translate(223.47265625,105)"><rect class="markmap-node-rect" y="-0.75" x="-1" width="123.677734375" height="1.5" fill="#ff7f0e"></rect><circle class="markmap-node-circle" cx="121.677734375" stroke="#ff7f0e" r="4.5" style="display: none;"></circle><text class="markmap-node-text" x="10" dy="-5" text-anchor="start" style="fill-opacity: 1;">India Bans TikTok (June)</text></g><g class="markmap-node" transform="translate(117.0146484375,127.5)"><rect class="markmap-node-rect" y="-1" x="-1" width="48.4580078125" height="2" fill="#ff7f0e"></rect><circle class="markmap-node-circle" cx="46.4580078125" stroke="#ff7f0e" r="4.5"></circle><text class="markmap-node-text" x="10" dy="-5" text-anchor="start" style="fill-opacity: 1;">Political</text></g><g class="markmap-node" transform="translate(201.236328125,85)"><rect class="markmap-node-rect" y="-0.75" x="-1" width="144.625" height="1.5" fill="#ffbb78"></rect><circle class="markmap-node-circle" cx="142.625" stroke="#ffbb78" r="4.5" style="display: none;"></circle><text class="markmap-node-text" x="10" dy="-5" text-anchor="start" style="fill-opacity: 1;">Possible Iran Sabotage (July)</text></g><g class="markmap-node" transform="translate(201.236328125,70)"><rect class="markmap-node-rect" y="-0.75" x="-1" width="127.369140625" height="1.5" fill="#ffbb78"></rect><circle class="markmap-node-circle" cx="125.369140625" stroke="#ffbb78" r="4.5" style="display: none;"></circle><text class="markmap-node-text" x="10" dy="-5" text-anchor="start" style="fill-opacity: 1;">Electricity in Texas (June)</text></g><g class="markmap-node" transform="translate(364.3935546875,65)"><rect class="markmap-node-rect" y="-0.75" x="-1" width="198.51171875" height="1.5" fill="#ffbb78"></rect><circle class="markmap-node-circle" cx="196.51171875" stroke="#ffbb78" r="4.5" style="display: none;"></circle><text class="markmap-node-text" x="10" dy="-5" text-anchor="start" style="fill-opacity: 1;">Oil Tankers Seized, Strained OPEC (July)</text></g><g class="markmap-node" transform="translate(364.3935546875,50)"><rect class="markmap-node-rect" y="-0.75" x="-1" width="136.8076171875" height="1.5" fill="#ffbb78"></rect><circle class="markmap-node-circle" cx="134.8076171875" stroke="#ffbb78" r="4.5" style="display: none;"></circle><text class="markmap-node-text" x="10" dy="-5" text-anchor="start" style="fill-opacity: 1;">Oil Crushes Investors (July)</text></g><g class="markmap-node" transform="translate(364.3935546875,35)"><rect class="markmap-node-rect" y="-0.75" x="-1" width="145.1767578125" height="1.5" fill="#ffbb78"></rect><circle class="markmap-node-circle" cx="143.1767578125" stroke="#ffbb78" r="4.5" style="display: none;"></circle><text class="markmap-node-text" x="10" dy="-5" text-anchor="start" style="fill-opacity: 1;">Oil Refiners Squeezed (June)</text></g><g class="markmap-node" transform="translate(201.236328125,50)"><rect class="markmap-node-rect" y="-0.75" x="-1" width="105.1572265625" height="1.5" fill="#ffbb78"></rect><circle class="markmap-node-circle" cx="103.1572265625" stroke="#ffbb78" r="4.5"></circle><text class="markmap-node-text" x="10" dy="-5" text-anchor="start" style="fill-opacity: 1;">Oil Shoots up (June)</text></g><g class="markmap-node" transform="translate(117.0146484375,67.5)"><rect class="markmap-node-rect" y="-1" x="-1" width="26.2216796875" height="2" fill="#ffbb78"></rect><circle class="markmap-node-circle" cx="24.2216796875" stroke="#ffbb78" r="4.5"></circle><text class="markmap-node-text" x="10" dy="-5" text-anchor="start" style="fill-opacity: 1;">Oil</text></g><g class="markmap-node" transform="translate(348.275390625,15)"><rect class="markmap-node-rect" y="-0.75" x="-1" width="152.9599609375" height="1.5" fill="#2ca02c"></rect><circle class="markmap-node-circle" cx="150.9599609375" stroke="#2ca02c" r="4.5" style="display: none;"></circle><text class="markmap-node-text" x="10" dy="-5" text-anchor="start" style="fill-opacity: 1;">PE is Approved for 401k (June)</text></g><g class="markmap-node" transform="translate(214.5810546875,15)"><rect class="markmap-node-rect" y="-0.75" x="-1" width="75.6943359375" height="1.5" fill="#2ca02c"></rect><circle class="markmap-node-circle" cx="73.6943359375" stroke="#2ca02c" r="4.5"></circle><text class="markmap-node-text" x="10" dy="-5" text-anchor="start" style="fill-opacity: 1;">Private Equity</text></g><g class="markmap-node" transform="translate(340.4921875,-5)"><rect class="markmap-node-rect" y="-0.75" x="-1" width="160.54296875" height="1.5" fill="#2ca02c"></rect><circle class="markmap-node-circle" cx="158.54296875" stroke="#2ca02c" r="4.5" style="display: none;"></circle><text class="markmap-node-text" x="10" dy="-5" text-anchor="start" style="fill-opacity: 1;">Virgin Signs w/ Spirit Aero (June)</text></g><g class="markmap-node" transform="translate(340.4921875,-20)"><rect class="markmap-node-rect" y="-0.75" x="-1" width="165.1767578125" height="1.5" fill="#2ca02c"></rect><circle class="markmap-node-circle" cx="163.1767578125" stroke="#2ca02c" r="4.5" style="display: none;"></circle><text class="markmap-node-text" x="10" dy="-5" text-anchor="start" style="fill-opacity: 1;">Apple makes its own Chips (June)</text></g><g class="markmap-node" transform="translate(340.4921875,-35)"><rect class="markmap-node-rect" y="-0.75" x="-1" width="165.7138671875" height="1.5" fill="#2ca02c"></rect><circle class="markmap-node-circle" cx="163.7138671875" stroke="#2ca02c" r="4.5" style="display: none;"></circle><text class="markmap-node-text" x="10" dy="-5" text-anchor="start" style="fill-opacity: 1;">Dailmer to Sell French Plant (July)</text></g><g class="markmap-node" transform="translate(340.4921875,-50)"><rect class="markmap-node-rect" y="-0.75" x="-1" width="150.181640625" height="1.5" fill="#2ca02c"></rect><circle class="markmap-node-circle" cx="148.181640625" stroke="#2ca02c" r="4.5" style="display: none;"></circle><text class="markmap-node-text" x="10" dy="-5" text-anchor="start" style="fill-opacity: 1;">Toyota Invested in Uber (June)</text></g><g class="markmap-node" transform="translate(214.5810546875,-27.5)"><rect class="markmap-node-rect" y="-0.75" x="-1" width="67.9111328125" height="1.5" fill="#2ca02c"></rect><circle class="markmap-node-circle" cx="65.9111328125" stroke="#2ca02c" r="4.5"></circle><text class="markmap-node-text" x="10" dy="-5" text-anchor="start" style="fill-opacity: 1;">Investments</text></g><g class="markmap-node" transform="translate(537.208984375,-70)"><rect class="markmap-node-rect" y="-0.75" x="-1" width="141.2607421875" height="1.5" fill="#2ca02c"></rect><circle class="markmap-node-circle" cx="139.2607421875" stroke="#2ca02c" r="4.5" style="display: none;"></circle><text class="markmap-node-text" x="10" dy="-5" text-anchor="start" style="fill-opacity: 1;">WireCard NA for Sale (June)</text></g><g class="markmap-node" transform="translate(368.2802734375,-70)"><rect class="markmap-node-rect" y="-0.75" x="-1" width="110.9287109375" height="1.5" fill="#2ca02c"></rect><circle class="markmap-node-circle" cx="108.9287109375" stroke="#2ca02c" r="4.5"></circle><text class="markmap-node-text" x="10" dy="-5" text-anchor="start" style="fill-opacity: 1;">Wirecard's Fall (June)</text></g><g class="markmap-node" transform="translate(368.2802734375,-90)"><rect class="markmap-node-rect" y="-0.75" x="-1" width="171.2998046875" height="1.5" fill="#2ca02c"></rect><circle class="markmap-node-circle" cx="169.2998046875" stroke="#2ca02c" r="4.5" style="display: none;"></circle><text class="markmap-node-text" x="10" dy="-5" text-anchor="start" style="fill-opacity: 1;">Chinese Energy Co Defaults (June)</text></g><g class="markmap-node" transform="translate(368.2802734375,-105)"><rect class="markmap-node-rect" y="-0.75" x="-1" width="176.6806640625" height="1.5" fill="#2ca02c"></rect><circle class="markmap-node-circle" cx="174.6806640625" stroke="#2ca02c" r="4.5" style="display: none;"></circle><text class="markmap-node-text" x="10" dy="-5" text-anchor="start" style="fill-opacity: 1;">Chesapeake Files Chapter 11 (June)</text></g><g class="markmap-node" transform="translate(368.2802734375,-120)"><rect class="markmap-node-rect" y="-0.75" x="-1" width="158.4873046875" height="1.5" fill="#2ca02c"></rect><circle class="markmap-node-circle" cx="156.4873046875" stroke="#2ca02c" r="4.5" style="display: none;"></circle><text class="markmap-node-text" x="10" dy="-5" text-anchor="start" style="fill-opacity: 1;">GNC Files for Bankruptcy (June)</text></g><g class="markmap-node" transform="translate(214.5810546875,-95)"><rect class="markmap-node-rect" y="-0.75" x="-1" width="95.69921875" height="1.5" fill="#2ca02c"></rect><circle class="markmap-node-circle" cx="93.69921875" stroke="#2ca02c" r="4.5"></circle><text class="markmap-node-text" x="10" dy="-5" text-anchor="start" style="fill-opacity: 1;">Bankruptcy Filings</text></g><g class="markmap-node" transform="translate(308.8076171875,-140)"><rect class="markmap-node-rect" y="-0.75" x="-1" width="150.7138671875" height="1.5" fill="#2ca02c"></rect><circle class="markmap-node-circle" cx="148.7138671875" stroke="#2ca02c" r="4.5" style="display: none;"></circle><text class="markmap-node-text" x="10" dy="-5" text-anchor="start" style="fill-opacity: 1;">Postmates IPO Revives (June)</text></g><g class="markmap-node" transform="translate(308.8076171875,-155)"><rect class="markmap-node-rect" y="-0.75" x="-1" width="147.41796875" height="1.5" fill="#2ca02c"></rect><circle class="markmap-node-circle" cx="145.41796875" stroke="#2ca02c" r="4.5" style="display: none;"></circle><text class="markmap-node-text" x="10" dy="-5" text-anchor="start" style="fill-opacity: 1;">Lemonade to go Public (June)</text></g><g class="markmap-node" transform="translate(308.8076171875,-170)"><rect class="markmap-node-rect" y="-0.75" x="-1" width="156.6416015625" height="1.5" fill="#2ca02c"></rect><circle class="markmap-node-circle" cx="154.6416015625" stroke="#2ca02c" r="4.5" style="display: none;"></circle><text class="markmap-node-text" x="10" dy="-5" text-anchor="start" style="fill-opacity: 1;">Virtual IPOs - Big Benefits (July)</text></g><g class="markmap-node" transform="translate(214.5810546875,-155)"><rect class="markmap-node-rect" y="-0.75" x="-1" width="36.2265625" height="1.5" fill="#2ca02c"></rect><circle class="markmap-node-circle" cx="34.2265625" stroke="#2ca02c" r="4.5"></circle><text class="markmap-node-text" x="10" dy="-5" text-anchor="start" style="fill-opacity: 1;">IPOs</text></g><g class="markmap-node" transform="translate(117.0146484375,-70)"><rect class="markmap-node-rect" y="-1" x="-1" width="39.56640625" height="2" fill="#2ca02c"></rect><circle class="markmap-node-circle" cx="37.56640625" stroke="#2ca02c" r="4.5"></circle><text class="markmap-node-text" x="10" dy="-5" text-anchor="start" style="fill-opacity: 1;">Deals</text></g><g class="markmap-node" transform="translate(251.8271484375,-190)"><rect class="markmap-node-rect" y="-0.75" x="-1" width="170.1328125" height="1.5" fill="#98df8a"></rect><circle class="markmap-node-circle" cx="168.1328125" stroke="#98df8a" r="4.5" style="display: none;"></circle><text class="markmap-node-text" x="10" dy="-5" text-anchor="start" style="fill-opacity: 1;">Fed may Mimic YCC Policies (July)</text></g><g class="markmap-node" transform="translate(465.0087890625,-187.5)"><rect class="markmap-node-rect" y="-0.75" x="-1" width="170.7529296875" height="1.5" fill="#98df8a"></rect><circle class="markmap-node-circle" cx="168.7529296875" stroke="#98df8a" r="4.5" style="display: none;"></circle><text class="markmap-node-text" x="10" dy="-5" text-anchor="start" style="fill-opacity: 1;">Economy Savings Changing (June)</text></g><g class="markmap-node" transform="translate(465.0087890625,-202.5)"><rect class="markmap-node-rect" y="-0.75" x="-1" width="146.8369140625" height="1.5" fill="#98df8a"></rect><circle class="markmap-node-circle" cx="144.8369140625" stroke="#98df8a" r="4.5" style="display: none;"></circle><text class="markmap-node-text" x="10" dy="-5" text-anchor="start" style="fill-opacity: 1;">Euro Junk Debt Rallies (June)</text></g><g class="markmap-node" transform="translate(465.0087890625,-217.5)"><rect class="markmap-node-rect" y="-0.75" x="-1" width="150.89453125" height="1.5" fill="#98df8a"></rect><circle class="markmap-node-circle" cx="148.89453125" stroke="#98df8a" r="4.5" style="display: none;"></circle><text class="markmap-node-text" x="10" dy="-5" text-anchor="start" style="fill-opacity: 1;">Yield Shows Pessimism (June)</text></g><g class="markmap-node" transform="translate(465.0087890625,-232.5)"><rect class="markmap-node-rect" y="-0.75" x="-1" width="115.7138671875" height="1.5" fill="#98df8a"></rect><circle class="markmap-node-circle" cx="113.7138671875" stroke="#98df8a" r="4.5" style="display: none;"></circle><text class="markmap-node-text" x="10" dy="-5" text-anchor="start" style="fill-opacity: 1;">Conflicting Data (June)</text></g><g class="markmap-node" transform="translate(251.8271484375,-210)"><rect class="markmap-node-rect" y="-0.75" x="-1" width="155.181640625" height="1.5" fill="#98df8a"></rect><circle class="markmap-node-circle" cx="153.181640625" stroke="#98df8a" r="4.5"></circle><text class="markmap-node-text" x="10" dy="-5" text-anchor="start" style="fill-opacity: 1;">Rates Near Zero to 2022 (June)</text></g><g class="markmap-node" transform="translate(493.919921875,-252.5)"><rect class="markmap-node-rect" y="-0.75" x="-1" width="161.470703125" height="1.5" fill="#98df8a"></rect><circle class="markmap-node-circle" cx="159.470703125" stroke="#98df8a" r="4.5" style="display: none;"></circle><text class="markmap-node-text" x="10" dy="-5" text-anchor="start" style="fill-opacity: 1;">Mortgage Market Tightens (June)</text></g><g class="markmap-node" transform="translate(493.919921875,-267.5)"><rect class="markmap-node-rect" y="-0.75" x="-1" width="153.1796875" height="1.5" fill="#98df8a"></rect><circle class="markmap-node-circle" cx="151.1796875" stroke="#98df8a" r="4.5" style="display: none;"></circle><text class="markmap-node-text" x="10" dy="-5" text-anchor="start" style="fill-opacity: 1;">Fed's Ninth Debt Facility (June)</text></g><g class="markmap-node" transform="translate(251.8271484375,-260)"><rect class="markmap-node-rect" y="-0.75" x="-1" width="184.0927734375" height="1.5" fill="#98df8a"></rect><circle class="markmap-node-circle" cx="182.0927734375" stroke="#98df8a" r="4.5"></circle><text class="markmap-node-text" x="10" dy="-5" text-anchor="start" style="fill-opacity: 1;">Bond Market Supported by Fed (June)</text></g><g class="markmap-node" transform="translate(251.8271484375,-275)"><rect class="markmap-node-rect" y="-0.75" x="-1" width="148.521484375" height="1.5" fill="#98df8a"></rect><circle class="markmap-node-circle" cx="146.521484375" stroke="#98df8a" r="4.5" style="display: none;"></circle><text class="markmap-node-text" x="10" dy="-5" text-anchor="start" style="fill-opacity: 1;">Canada Notched Down (June)</text></g><g class="markmap-node" transform="translate(251.8271484375,-290)"><rect class="markmap-node-rect" y="-0.75" x="-1" width="149.849609375" height="1.5" fill="#98df8a"></rect><circle class="markmap-node-circle" cx="147.849609375" stroke="#98df8a" r="4.5" style="display: none;"></circle><text class="markmap-node-text" x="10" dy="-5" text-anchor="start" style="fill-opacity: 1;">CLO and CDO's Return (June)</text></g><g class="markmap-node" transform="translate(117.0146484375,-240)"><rect class="markmap-node-rect" y="-1" x="-1" width="76.8125" height="2" fill="#98df8a"></rect><circle class="markmap-node-circle" cx="74.8125" stroke="#98df8a" r="4.5"></circle><text class="markmap-node-text" x="10" dy="-5" text-anchor="start" style="fill-opacity: 1;">Rates / Bonds</text></g><g class="markmap-node" transform="translate(0,0)"><rect class="markmap-node-rect" y="-3" x="-1" width="59.0146484375" height="6" fill="#d62728"></rect><circle class="markmap-node-circle" cx="57.0146484375" stroke="#d62728" r="4.5"></circle><text class="markmap-node-text" x="10" dy="-5" text-anchor="start" style="fill-opacity: 1;">YTD_Map</text></g></g>
</svg>
