<?xml version="1.0" standalone="no"?>
<!DOCTYPE svg PUBLIC "-//W3C//DTD SVG 1.1//EN"
  "http://www.w3.org/Graphics/SVG/1.1/DTD/svg11.dtd">
<svg xmlns="http://www.w3.org/2000/svg" version="1.1"
     width="766px" height="908px" viewBox="-15 -499 766 928">
  <defs>
    <style type="text/css"><![CDATA[
      .markmap-node {
        cursor: pointer;
      }

      .markmap-node-circle {
        fill: #fff;
        stroke-width: 1.5px;
      }

      .markmap-node-text {
        fill:  #000;
        font: 10px sans-serif;
      }

      .markmap-link {
        fill: none;
      }
    ]]></style>
  </defs>
  <g><path class="markmap-link" stroke="#929292" stroke-width="1" d="M307.60546875,413.75C337.60546875,413.75 337.60546875,413.75 367.60546875,413.75"></path><path class="markmap-link" stroke="#929292" stroke-width="1" d="M312.0537109375,383.75C342.0537109375,383.75 342.0537109375,383.75 372.0537109375,383.75"></path><path class="markmap-link" stroke="#929292" stroke-width="1" d="M307.60546875,353.75C337.60546875,353.75 337.60546875,353.75 367.60546875,353.75"></path><path class="markmap-link" stroke="#929292" stroke-width="1" d="M174.1376953125,383.75C204.1376953125,383.75 204.1376953125,353.75 234.1376953125,353.75"></path><path class="markmap-link" stroke="#929292" stroke-width="1" d="M174.1376953125,383.75C204.1376953125,383.75 204.1376953125,383.75 234.1376953125,383.75"></path><path class="markmap-link" stroke="#929292" stroke-width="1" d="M174.1376953125,383.75C204.1376953125,383.75 204.1376953125,413.75 234.1376953125,413.75"></path><path class="markmap-link" stroke="#929292" stroke-width="1" d="M198.0341796875,298.75C228.0341796875,298.75 228.0341796875,273.75 258.0341796875,273.75"></path><path class="markmap-link" stroke="#929292" stroke-width="1" d="M198.0341796875,298.75C228.0341796875,298.75 228.0341796875,298.75 258.0341796875,298.75"></path><path class="markmap-link" stroke="#929292" stroke-width="1" d="M198.0341796875,298.75C228.0341796875,298.75 228.0341796875,323.75 258.0341796875,323.75"></path><path class="markmap-link" stroke="#929292" stroke-width="1" d="M187.47265625,206.25C217.47265625,206.25 217.47265625,168.75 247.47265625,168.75"></path><path class="markmap-link" stroke="#929292" stroke-width="1" d="M187.47265625,206.25C217.47265625,206.25 217.47265625,193.75 247.47265625,193.75"></path><path class="markmap-link" stroke="#929292" stroke-width="1" d="M187.47265625,206.25C217.47265625,206.25 217.47265625,218.75 247.47265625,218.75"></path><path class="markmap-link" stroke="#929292" stroke-width="1" d="M187.47265625,206.25C217.47265625,206.25 217.47265625,243.75 247.47265625,243.75"></path><path class="markmap-link" stroke="#929292" stroke-width="1" d="M340.3935546875,83.75C370.3935546875,83.75 370.3935546875,58.75 400.3935546875,58.75"></path><path class="markmap-link" stroke="#929292" stroke-width="1" d="M340.3935546875,83.75C370.3935546875,83.75 370.3935546875,83.75 400.3935546875,83.75"></path><path class="markmap-link" stroke="#929292" stroke-width="1" d="M340.3935546875,83.75C370.3935546875,83.75 370.3935546875,108.75 400.3935546875,108.75"></path><path class="markmap-link" stroke="#929292" stroke-width="1" d="M165.236328125,111.25C195.236328125,111.25 195.236328125,83.75 225.236328125,83.75"></path><path class="markmap-link" stroke="#929292" stroke-width="1" d="M165.236328125,111.25C195.236328125,111.25 195.236328125,113.75 225.236328125,113.75"></path><path class="markmap-link" stroke="#929292" stroke-width="1" d="M165.236328125,111.25C195.236328125,111.25 195.236328125,138.75 225.236328125,138.75"></path><path class="markmap-link" stroke="#929292" stroke-width="1" d="M324.275390625,28.75C354.275390625,28.75 354.275390625,28.75 384.275390625,28.75"></path><path class="markmap-link" stroke="#929292" stroke-width="1" d="M316.4921875,-38.75C346.4921875,-38.75 346.4921875,-76.25 376.4921875,-76.25"></path><path class="markmap-link" stroke="#929292" stroke-width="1" d="M316.4921875,-38.75C346.4921875,-38.75 346.4921875,-51.25 376.4921875,-51.25"></path><path class="markmap-link" stroke="#929292" stroke-width="1" d="M316.4921875,-38.75C346.4921875,-38.75 346.4921875,-26.25 376.4921875,-26.25"></path><path class="markmap-link" stroke="#929292" stroke-width="1" d="M316.4921875,-38.75C346.4921875,-38.75 346.4921875,-1.25 376.4921875,-1.25"></path><path class="markmap-link" stroke="#929292" stroke-width="1" d="M525.208984375,-106.25C555.208984375,-106.25 555.208984375,-106.25 585.208984375,-106.25"></path><path class="markmap-link" stroke="#929292" stroke-width="1" d="M344.2802734375,-146.25C374.2802734375,-146.25 374.2802734375,-186.25 404.2802734375,-186.25"></path><path class="markmap-link" stroke="#929292" stroke-width="1" d="M344.2802734375,-146.25C374.2802734375,-146.25 374.2802734375,-161.25 404.2802734375,-161.25"></path><path class="markmap-link" stroke="#929292" stroke-width="1" d="M344.2802734375,-146.25C374.2802734375,-146.25 374.2802734375,-136.25 404.2802734375,-136.25"></path><path class="markmap-link" stroke="#929292" stroke-width="1" d="M344.2802734375,-146.25C374.2802734375,-146.25 374.2802734375,-106.25 404.2802734375,-106.25"></path><path class="markmap-link" stroke="#929292" stroke-width="1" d="M284.8076171875,-241.25C314.8076171875,-241.25 314.8076171875,-266.25 344.8076171875,-266.25"></path><path class="markmap-link" stroke="#929292" stroke-width="1" d="M284.8076171875,-241.25C314.8076171875,-241.25 314.8076171875,-241.25 344.8076171875,-241.25"></path><path class="markmap-link" stroke="#929292" stroke-width="1" d="M284.8076171875,-241.25C314.8076171875,-241.25 314.8076171875,-216.25 344.8076171875,-216.25"></path><path class="markmap-link" stroke="#929292" stroke-width="1" d="M178.5810546875,-106.25C208.5810546875,-106.25 208.5810546875,-241.25 238.5810546875,-241.25"></path><path class="markmap-link" stroke="#929292" stroke-width="1" d="M178.5810546875,-106.25C208.5810546875,-106.25 208.5810546875,-146.25 238.5810546875,-146.25"></path><path class="markmap-link" stroke="#929292" stroke-width="1" d="M178.5810546875,-106.25C208.5810546875,-106.25 208.5810546875,-38.75 238.5810546875,-38.75"></path><path class="markmap-link" stroke="#929292" stroke-width="1" d="M178.5810546875,-106.25C208.5810546875,-106.25 208.5810546875,28.75 238.5810546875,28.75"></path><path class="markmap-link" stroke="#929292" stroke-width="1" d="M441.0087890625,-333.75C471.0087890625,-333.75 471.0087890625,-371.25 501.0087890625,-371.25"></path><path class="markmap-link" stroke="#929292" stroke-width="1" d="M441.0087890625,-333.75C471.0087890625,-333.75 471.0087890625,-346.25 501.0087890625,-346.25"></path><path class="markmap-link" stroke="#929292" stroke-width="1" d="M441.0087890625,-333.75C471.0087890625,-333.75 471.0087890625,-321.25 501.0087890625,-321.25"></path><path class="markmap-link" stroke="#929292" stroke-width="1" d="M441.0087890625,-333.75C471.0087890625,-333.75 471.0087890625,-296.25 501.0087890625,-296.25"></path><path class="markmap-link" stroke="#929292" stroke-width="1" d="M469.919921875,-413.75C499.919921875,-413.75 499.919921875,-426.25 529.919921875,-426.25"></path><path class="markmap-link" stroke="#929292" stroke-width="1" d="M469.919921875,-413.75C499.919921875,-413.75 499.919921875,-401.25 529.919921875,-401.25"></path><path class="markmap-link" stroke="#929292" stroke-width="1" d="M215.8271484375,-383.75C245.8271484375,-383.75 245.8271484375,-463.75 275.8271484375,-463.75"></path><path class="markmap-link" stroke="#929292" stroke-width="1" d="M215.8271484375,-383.75C245.8271484375,-383.75 245.8271484375,-438.75 275.8271484375,-438.75"></path><path class="markmap-link" stroke="#929292" stroke-width="1" d="M215.8271484375,-383.75C245.8271484375,-383.75 245.8271484375,-413.75 275.8271484375,-413.75"></path><path class="markmap-link" stroke="#929292" stroke-width="1" d="M215.8271484375,-383.75C245.8271484375,-383.75 245.8271484375,-333.75 275.8271484375,-333.75"></path><path class="markmap-link" stroke="#929292" stroke-width="1" d="M215.8271484375,-383.75C245.8271484375,-383.75 245.8271484375,-303.75 275.8271484375,-303.75"></path><path class="markmap-link" stroke="#929292" stroke-width="1" d="M69.0146484375,0C99.0146484375,0 99.0146484375,-383.75 129.0146484375,-383.75"></path><path class="markmap-link" stroke="#929292" stroke-width="1" d="M69.0146484375,0C99.0146484375,0 99.0146484375,-106.25 129.0146484375,-106.25"></path><path class="markmap-link" stroke="#929292" stroke-width="1" d="M69.0146484375,0C99.0146484375,0 99.0146484375,111.25 129.0146484375,111.25"></path><path class="markmap-link" stroke="#929292" stroke-width="1" d="M69.0146484375,0C99.0146484375,0 99.0146484375,206.25 129.0146484375,206.25"></path><path class="markmap-link" stroke="#929292" stroke-width="1" d="M69.0146484375,0C99.0146484375,0 99.0146484375,298.75 129.0146484375,298.75"></path><path class="markmap-link" stroke="#929292" stroke-width="1" d="M69.0146484375,0C99.0146484375,0 99.0146484375,383.75 129.0146484375,383.75"></path><g class="markmap-node" transform="translate(367.60546875,413.75)"><rect class="markmap-node-rect" y="-10" x="-1" width="141.0537109375" height="20" fill="#dfdfdf" rx="10" ry="10" stroke="#929292" stroke-width="1"></rect><circle class="markmap-node-circle" cx="139.0537109375" stroke="#929292" r="4.5" style="display: none;"></circle><text class="markmap-node-text" x="10" dy="3" text-anchor="start" style="fill-opacity: 1;">Sales Rise by 18% (June)</text></g><g class="markmap-node" transform="translate(234.1376953125,413.75)"><rect class="markmap-node-rect" y="-10" x="-1" width="75.4677734375" height="20" fill="#dfdfdf" rx="10" ry="10" stroke="#929292" stroke-width="1"></rect><circle class="markmap-node-circle" cx="73.4677734375" stroke="#929292" r="4.5"></circle><text class="markmap-node-text" x="10" dy="3" text-anchor="start" style="fill-opacity: 1;">Retail Data</text></g><g class="markmap-node" transform="translate(372.0537109375,383.75)"><rect class="markmap-node-rect" y="-10" x="-1" width="223.3291015625" height="20" fill="#dfdfdf" rx="10" ry="10" stroke="#929292" stroke-width="1"></rect><circle class="markmap-node-circle" cx="221.3291015625" stroke="#929292" r="4.5" style="display: none;"></circle><text class="markmap-node-text" x="10" dy="3" text-anchor="start" style="fill-opacity: 1;">Jobs Rebound, Gloomy August Ahead (July)</text></g><g class="markmap-node" transform="translate(234.1376953125,383.75)"><rect class="markmap-node-rect" y="-10" x="-1" width="79.916015625" height="20" fill="#dfdfdf" rx="10" ry="10" stroke="#929292" stroke-width="1"></rect><circle class="markmap-node-circle" cx="77.916015625" stroke="#929292" r="4.5"></circle><text class="markmap-node-text" x="10" dy="3" text-anchor="start" style="fill-opacity: 1;">Jobs Report</text></g><g class="markmap-node" transform="translate(367.60546875,353.75)"><rect class="markmap-node-rect" y="-10" x="-1" width="143.275390625" height="20" fill="#dfdfdf" rx="10" ry="10" stroke="#929292" stroke-width="1"></rect><circle class="markmap-node-circle" cx="141.275390625" stroke="#929292" r="4.5" style="display: none;"></circle><text class="markmap-node-text" x="10" dy="3" text-anchor="start" style="fill-opacity: 1;">Covid Cases Surge (June)</text></g><g class="markmap-node" transform="translate(234.1376953125,353.75)"><rect class="markmap-node-rect" y="-10" x="-1" width="75.4677734375" height="20" fill="#dfdfdf" rx="10" ry="10" stroke="#929292" stroke-width="1"></rect><circle class="markmap-node-circle" cx="73.4677734375" stroke="#929292" r="4.5"></circle><text class="markmap-node-text" x="10" dy="3" text-anchor="start" style="fill-opacity: 1;">Covid Data</text></g><g class="markmap-node" transform="translate(129.0146484375,383.75)"><rect class="markmap-node-rect" y="-10" x="-1" width="47.123046875" height="20" fill="#dfdfdf" rx="10" ry="10" stroke="#929292" stroke-width="1"></rect><circle class="markmap-node-circle" cx="45.123046875" stroke="#929292" r="4.5"></circle><text class="markmap-node-text" x="10" dy="3" text-anchor="start" style="fill-opacity: 1;">Data</text></g><g class="markmap-node" transform="translate(258.0341796875,323.75)"><rect class="markmap-node-rect" y="-10" x="-1" width="196.09765625" height="20" fill="#dfdfdf" rx="10" ry="10" stroke="#929292" stroke-width="1"></rect><circle class="markmap-node-circle" cx="194.09765625" stroke="#929292" r="4.5" style="display: none;"></circle><text class="markmap-node-text" x="10" dy="3" text-anchor="start" style="fill-opacity: 1;">Probes Against Exchange Data (June)</text></g><g class="markmap-node" transform="translate(258.0341796875,298.75)"><rect class="markmap-node-rect" y="-10" x="-1" width="182.796875" height="20" fill="#dfdfdf" rx="10" ry="10" stroke="#929292" stroke-width="1"></rect><circle class="markmap-node-circle" cx="180.796875" stroke="#929292" r="4.5" style="display: none;"></circle><text class="markmap-node-text" x="10" dy="3" text-anchor="start" style="fill-opacity: 1;">World's Best Big Lender, DB (June)</text></g><g class="markmap-node" transform="translate(258.0341796875,273.75)"><rect class="markmap-node-rect" y="-10" x="-1" width="198.490234375" height="20" fill="#dfdfdf" rx="10" ry="10" stroke="#929292" stroke-width="1"></rect><circle class="markmap-node-circle" cx="196.490234375" stroke="#929292" r="4.5" style="display: none;"></circle><text class="markmap-node-text" x="10" dy="3" text-anchor="start" style="fill-opacity: 1;">Banks Warned Before Outbreak (June)</text></g><g class="markmap-node" transform="translate(129.0146484375,298.75)"><rect class="markmap-node-rect" y="-10" x="-1" width="71.01953125" height="20" fill="#dfdfdf" rx="10" ry="10" stroke="#929292" stroke-width="1"></rect><circle class="markmap-node-circle" cx="69.01953125" stroke="#929292" r="4.5"></circle><text class="markmap-node-text" x="10" dy="3" text-anchor="start" style="fill-opacity: 1;">Financials</text></g><g class="markmap-node" transform="translate(247.47265625,243.75)"><rect class="markmap-node-rect" y="-10" x="-1" width="148.08984375" height="20" fill="#dfdfdf" rx="10" ry="10" stroke="#929292" stroke-width="1"></rect><circle class="markmap-node-circle" cx="146.08984375" stroke="#929292" r="4.5" style="display: none;"></circle><text class="markmap-node-text" x="10" dy="3" text-anchor="start" style="fill-opacity: 1;">Potential New Tariffs (June)</text></g><g class="markmap-node" transform="translate(247.47265625,218.75)"><rect class="markmap-node-rect" y="-10" x="-1" width="182.0009765625" height="20" fill="#dfdfdf" rx="10" ry="10" stroke="#929292" stroke-width="1"></rect><circle class="markmap-node-circle" cx="180.0009765625" stroke="#929292" r="4.5" style="display: none;"></circle><text class="markmap-node-text" x="10" dy="3" text-anchor="start" style="fill-opacity: 1;">North Korea blows up Office (June)</text></g><g class="markmap-node" transform="translate(247.47265625,193.75)"><rect class="markmap-node-rect" y="-10" x="-1" width="159.37890625" height="20" fill="#dfdfdf" rx="10" ry="10" stroke="#929292" stroke-width="1"></rect><circle class="markmap-node-circle" cx="157.37890625" stroke="#929292" r="4.5" style="display: none;"></circle><text class="markmap-node-text" x="10" dy="3" text-anchor="start" style="fill-opacity: 1;">Bezos Willing to Testify (June)</text></g><g class="markmap-node" transform="translate(247.47265625,168.75)"><rect class="markmap-node-rect" y="-10" x="-1" width="135.677734375" height="20" fill="#dfdfdf" rx="10" ry="10" stroke="#929292" stroke-width="1"></rect><circle class="markmap-node-circle" cx="133.677734375" stroke="#929292" r="4.5" style="display: none;"></circle><text class="markmap-node-text" x="10" dy="3" text-anchor="start" style="fill-opacity: 1;">India Bans TikTok (June)</text></g><g class="markmap-node" transform="translate(129.0146484375,206.25)"><rect class="markmap-node-rect" y="-10" x="-1" width="60.4580078125" height="20" fill="#dfdfdf" rx="10" ry="10" stroke="#929292" stroke-width="1"></rect><circle class="markmap-node-circle" cx="58.4580078125" stroke="#929292" r="4.5"></circle><text class="markmap-node-text" x="10" dy="3" text-anchor="start" style="fill-opacity: 1;">Political</text></g><g class="markmap-node" transform="translate(225.236328125,138.75)"><rect class="markmap-node-rect" y="-10" x="-1" width="156.625" height="20" fill="#dfdfdf" rx="10" ry="10" stroke="#929292" stroke-width="1"></rect><circle class="markmap-node-circle" cx="154.625" stroke="#929292" r="4.5" style="display: none;"></circle><text class="markmap-node-text" x="10" dy="3" text-anchor="start" style="fill-opacity: 1;">Possible Iran Sabotage (July)</text></g><g class="markmap-node" transform="translate(225.236328125,113.75)"><rect class="markmap-node-rect" y="-10" x="-1" width="139.369140625" height="20" fill="#dfdfdf" rx="10" ry="10" stroke="#929292" stroke-width="1"></rect><circle class="markmap-node-circle" cx="137.369140625" stroke="#929292" r="4.5" style="display: none;"></circle><text class="markmap-node-text" x="10" dy="3" text-anchor="start" style="fill-opacity: 1;">Electricity in Texas (June)</text></g><g class="markmap-node" transform="translate(400.3935546875,108.75)"><rect class="markmap-node-rect" y="-10" x="-1" width="210.51171875" height="20" fill="#dfdfdf" rx="10" ry="10" stroke="#929292" stroke-width="1"></rect><circle class="markmap-node-circle" cx="208.51171875" stroke="#929292" r="4.5" style="display: none;"></circle><text class="markmap-node-text" x="10" dy="3" text-anchor="start" style="fill-opacity: 1;">Oil Tankers Seized, Strained OPEC (July)</text></g><g class="markmap-node" transform="translate(400.3935546875,83.75)"><rect class="markmap-node-rect" y="-10" x="-1" width="148.8076171875" height="20" fill="#dfdfdf" rx="10" ry="10" stroke="#929292" stroke-width="1"></rect><circle class="markmap-node-circle" cx="146.8076171875" stroke="#929292" r="4.5" style="display: none;"></circle><text class="markmap-node-text" x="10" dy="3" text-anchor="start" style="fill-opacity: 1;">Oil Crushes Investors (July)</text></g><g class="markmap-node" transform="translate(400.3935546875,58.75)"><rect class="markmap-node-rect" y="-10" x="-1" width="157.1767578125" height="20" fill="#dfdfdf" rx="10" ry="10" stroke="#929292" stroke-width="1"></rect><circle class="markmap-node-circle" cx="155.1767578125" stroke="#929292" r="4.5" style="display: none;"></circle><text class="markmap-node-text" x="10" dy="3" text-anchor="start" style="fill-opacity: 1;">Oil Refiners Squeezed (June)</text></g><g class="markmap-node" transform="translate(225.236328125,83.75)"><rect class="markmap-node-rect" y="-10" x="-1" width="117.1572265625" height="20" fill="#dfdfdf" rx="10" ry="10" stroke="#929292" stroke-width="1"></rect><circle class="markmap-node-circle" cx="115.1572265625" stroke="#929292" r="4.5"></circle><text class="markmap-node-text" x="10" dy="3" text-anchor="start" style="fill-opacity: 1;">Oil Shoots up (June)</text></g><g class="markmap-node" transform="translate(129.0146484375,111.25)"><rect class="markmap-node-rect" y="-10" x="-1" width="38.2216796875" height="20" fill="#dfdfdf" rx="10" ry="10" stroke="#929292" stroke-width="1"></rect><circle class="markmap-node-circle" cx="36.2216796875" stroke="#929292" r="4.5"></circle><text class="markmap-node-text" x="10" dy="3" text-anchor="start" style="fill-opacity: 1;">Oil</text></g><g class="markmap-node" transform="translate(384.275390625,28.75)"><rect class="markmap-node-rect" y="-10" x="-1" width="164.9599609375" height="20" fill="#dfdfdf" rx="10" ry="10" stroke="#929292" stroke-width="1"></rect><circle class="markmap-node-circle" cx="162.9599609375" stroke="#929292" r="4.5" style="display: none;"></circle><text class="markmap-node-text" x="10" dy="3" text-anchor="start" style="fill-opacity: 1;">PE is Approved for 401k (June)</text></g><g class="markmap-node" transform="translate(238.5810546875,28.75)"><rect class="markmap-node-rect" y="-10" x="-1" width="87.6943359375" height="20" fill="#dfdfdf" rx="10" ry="10" stroke="#929292" stroke-width="1"></rect><circle class="markmap-node-circle" cx="85.6943359375" stroke="#929292" r="4.5"></circle><text class="markmap-node-text" x="10" dy="3" text-anchor="start" style="fill-opacity: 1;">Private Equity</text></g><g class="markmap-node" transform="translate(376.4921875,-1.25)"><rect class="markmap-node-rect" y="-10" x="-1" width="172.54296875" height="20" fill="#dfdfdf" rx="10" ry="10" stroke="#929292" stroke-width="1"></rect><circle class="markmap-node-circle" cx="170.54296875" stroke="#929292" r="4.5" style="display: none;"></circle><text class="markmap-node-text" x="10" dy="3" text-anchor="start" style="fill-opacity: 1;">Virgin Signs w/ Spirit Aero (June)</text></g><g class="markmap-node" transform="translate(376.4921875,-26.25)"><rect class="markmap-node-rect" y="-10" x="-1" width="177.1767578125" height="20" fill="#dfdfdf" rx="10" ry="10" stroke="#929292" stroke-width="1"></rect><circle class="markmap-node-circle" cx="175.1767578125" stroke="#929292" r="4.5" style="display: none;"></circle><text class="markmap-node-text" x="10" dy="3" text-anchor="start" style="fill-opacity: 1;">Apple makes its own Chips (June)</text></g><g class="markmap-node" transform="translate(376.4921875,-51.25)"><rect class="markmap-node-rect" y="-10" x="-1" width="177.7138671875" height="20" fill="#dfdfdf" rx="10" ry="10" stroke="#929292" stroke-width="1"></rect><circle class="markmap-node-circle" cx="175.7138671875" stroke="#929292" r="4.5" style="display: none;"></circle><text class="markmap-node-text" x="10" dy="3" text-anchor="start" style="fill-opacity: 1;">Dailmer to Sell French Plant (July)</text></g><g class="markmap-node" transform="translate(376.4921875,-76.25)"><rect class="markmap-node-rect" y="-10" x="-1" width="162.181640625" height="20" fill="#dfdfdf" rx="10" ry="10" stroke="#929292" stroke-width="1"></rect><circle class="markmap-node-circle" cx="160.181640625" stroke="#929292" r="4.5" style="display: none;"></circle><text class="markmap-node-text" x="10" dy="3" text-anchor="start" style="fill-opacity: 1;">Toyota Invested in Uber (June)</text></g><g class="markmap-node" transform="translate(238.5810546875,-38.75)"><rect class="markmap-node-rect" y="-10" x="-1" width="79.9111328125" height="20" fill="#dfdfdf" rx="10" ry="10" stroke="#929292" stroke-width="1"></rect><circle class="markmap-node-circle" cx="77.9111328125" stroke="#929292" r="4.5"></circle><text class="markmap-node-text" x="10" dy="3" text-anchor="start" style="fill-opacity: 1;">Investments</text></g><g class="markmap-node" transform="translate(585.208984375,-106.25)"><rect class="markmap-node-rect" y="-10" x="-1" width="153.2607421875" height="20" fill="#dfdfdf" rx="10" ry="10" stroke="#929292" stroke-width="1"></rect><circle class="markmap-node-circle" cx="151.2607421875" stroke="#929292" r="4.5" style="display: none;"></circle><text class="markmap-node-text" x="10" dy="3" text-anchor="start" style="fill-opacity: 1;">WireCard NA for Sale (June)</text></g><g class="markmap-node" transform="translate(404.2802734375,-106.25)"><rect class="markmap-node-rect" y="-10" x="-1" width="122.9287109375" height="20" fill="#dfdfdf" rx="10" ry="10" stroke="#929292" stroke-width="1"></rect><circle class="markmap-node-circle" cx="120.9287109375" stroke="#929292" r="4.5"></circle><text class="markmap-node-text" x="10" dy="3" text-anchor="start" style="fill-opacity: 1;">Wirecard's Fall (June)</text></g><g class="markmap-node" transform="translate(404.2802734375,-136.25)"><rect class="markmap-node-rect" y="-10" x="-1" width="183.2998046875" height="20" fill="#dfdfdf" rx="10" ry="10" stroke="#929292" stroke-width="1"></rect><circle class="markmap-node-circle" cx="181.2998046875" stroke="#929292" r="4.5" style="display: none;"></circle><text class="markmap-node-text" x="10" dy="3" text-anchor="start" style="fill-opacity: 1;">Chinese Energy Co Defaults (June)</text></g><g class="markmap-node" transform="translate(404.2802734375,-161.25)"><rect class="markmap-node-rect" y="-10" x="-1" width="188.6806640625" height="20" fill="#dfdfdf" rx="10" ry="10" stroke="#929292" stroke-width="1"></rect><circle class="markmap-node-circle" cx="186.6806640625" stroke="#929292" r="4.5" style="display: none;"></circle><text class="markmap-node-text" x="10" dy="3" text-anchor="start" style="fill-opacity: 1;">Chesapeake Files Chapter 11 (June)</text></g><g class="markmap-node" transform="translate(404.2802734375,-186.25)"><rect class="markmap-node-rect" y="-10" x="-1" width="170.4873046875" height="20" fill="#dfdfdf" rx="10" ry="10" stroke="#929292" stroke-width="1"></rect><circle class="markmap-node-circle" cx="168.4873046875" stroke="#929292" r="4.5" style="display: none;"></circle><text class="markmap-node-text" x="10" dy="3" text-anchor="start" style="fill-opacity: 1;">GNC Files for Bankruptcy (June)</text></g><g class="markmap-node" transform="translate(238.5810546875,-146.25)"><rect class="markmap-node-rect" y="-10" x="-1" width="107.69921875" height="20" fill="#dfdfdf" rx="10" ry="10" stroke="#929292" stroke-width="1"></rect><circle class="markmap-node-circle" cx="105.69921875" stroke="#929292" r="4.5"></circle><text class="markmap-node-text" x="10" dy="3" text-anchor="start" style="fill-opacity: 1;">Bankruptcy Filings</text></g><g class="markmap-node" transform="translate(344.8076171875,-216.25)"><rect class="markmap-node-rect" y="-10" x="-1" width="162.7138671875" height="20" fill="#dfdfdf" rx="10" ry="10" stroke="#929292" stroke-width="1"></rect><circle class="markmap-node-circle" cx="160.7138671875" stroke="#929292" r="4.5" style="display: none;"></circle><text class="markmap-node-text" x="10" dy="3" text-anchor="start" style="fill-opacity: 1;">Postmates IPO Revives (June)</text></g><g class="markmap-node" transform="translate(344.8076171875,-241.25)"><rect class="markmap-node-rect" y="-10" x="-1" width="159.41796875" height="20" fill="#dfdfdf" rx="10" ry="10" stroke="#929292" stroke-width="1"></rect><circle class="markmap-node-circle" cx="157.41796875" stroke="#929292" r="4.5" style="display: none;"></circle><text class="markmap-node-text" x="10" dy="3" text-anchor="start" style="fill-opacity: 1;">Lemonade to go Public (June)</text></g><g class="markmap-node" transform="translate(344.8076171875,-266.25)"><rect class="markmap-node-rect" y="-10" x="-1" width="168.6416015625" height="20" fill="#dfdfdf" rx="10" ry="10" stroke="#929292" stroke-width="1"></rect><circle class="markmap-node-circle" cx="166.6416015625" stroke="#929292" r="4.5" style="display: none;"></circle><text class="markmap-node-text" x="10" dy="3" text-anchor="start" style="fill-opacity: 1;">Virtual IPOs - Big Benefits (July)</text></g><g class="markmap-node" transform="translate(238.5810546875,-241.25)"><rect class="markmap-node-rect" y="-10" x="-1" width="48.2265625" height="20" fill="#dfdfdf" rx="10" ry="10" stroke="#929292" stroke-width="1"></rect><circle class="markmap-node-circle" cx="46.2265625" stroke="#929292" r="4.5"></circle><text class="markmap-node-text" x="10" dy="3" text-anchor="start" style="fill-opacity: 1;">IPOs</text></g><g class="markmap-node" transform="translate(129.0146484375,-106.25)"><rect class="markmap-node-rect" y="-10" x="-1" width="51.56640625" height="20" fill="#dfdfdf" rx="10" ry="10" stroke="#929292" stroke-width="1"></rect><circle class="markmap-node-circle" cx="49.56640625" stroke="#929292" r="4.5"></circle><text class="markmap-node-text" x="10" dy="3" text-anchor="start" style="fill-opacity: 1;">Deals</text></g><g class="markmap-node" transform="translate(275.8271484375,-303.75)"><rect class="markmap-node-rect" y="-10" x="-1" width="182.1328125" height="20" fill="#dfdfdf" rx="10" ry="10" stroke="#929292" stroke-width="1"></rect><circle class="markmap-node-circle" cx="180.1328125" stroke="#929292" r="4.5" style="display: none;"></circle><text class="markmap-node-text" x="10" dy="3" text-anchor="start" style="fill-opacity: 1;">Fed may Mimic YCC Policies (July)</text></g><g class="markmap-node" transform="translate(501.0087890625,-296.25)"><rect class="markmap-node-rect" y="-10" x="-1" width="182.7529296875" height="20" fill="#dfdfdf" rx="10" ry="10" stroke="#929292" stroke-width="1"></rect><circle class="markmap-node-circle" cx="180.7529296875" stroke="#929292" r="4.5" style="display: none;"></circle><text class="markmap-node-text" x="10" dy="3" text-anchor="start" style="fill-opacity: 1;">Economy Savings Changing (June)</text></g><g class="markmap-node" transform="translate(501.0087890625,-321.25)"><rect class="markmap-node-rect" y="-10" x="-1" width="158.8369140625" height="20" fill="#dfdfdf" rx="10" ry="10" stroke="#929292" stroke-width="1"></rect><circle class="markmap-node-circle" cx="156.8369140625" stroke="#929292" r="4.5" style="display: none;"></circle><text class="markmap-node-text" x="10" dy="3" text-anchor="start" style="fill-opacity: 1;">Euro Junk Debt Rallies (June)</text></g><g class="markmap-node" transform="translate(501.0087890625,-346.25)"><rect class="markmap-node-rect" y="-10" x="-1" width="162.89453125" height="20" fill="#dfdfdf" rx="10" ry="10" stroke="#929292" stroke-width="1"></rect><circle class="markmap-node-circle" cx="160.89453125" stroke="#929292" r="4.5" style="display: none;"></circle><text class="markmap-node-text" x="10" dy="3" text-anchor="start" style="fill-opacity: 1;">Yield Shows Pessimism (June)</text></g><g class="markmap-node" transform="translate(501.0087890625,-371.25)"><rect class="markmap-node-rect" y="-10" x="-1" width="127.7138671875" height="20" fill="#dfdfdf" rx="10" ry="10" stroke="#929292" stroke-width="1"></rect><circle class="markmap-node-circle" cx="125.7138671875" stroke="#929292" r="4.5" style="display: none;"></circle><text class="markmap-node-text" x="10" dy="3" text-anchor="start" style="fill-opacity: 1;">Conflicting Data (June)</text></g><g class="markmap-node" transform="translate(275.8271484375,-333.75)"><rect class="markmap-node-rect" y="-10" x="-1" width="167.181640625" height="20" fill="#dfdfdf" rx="10" ry="10" stroke="#929292" stroke-width="1"></rect><circle class="markmap-node-circle" cx="165.181640625" stroke="#929292" r="4.5"></circle><text class="markmap-node-text" x="10" dy="3" text-anchor="start" style="fill-opacity: 1;">Rates Near Zero to 2022 (June)</text></g><g class="markmap-node" transform="translate(529.919921875,-401.25)"><rect class="markmap-node-rect" y="-10" x="-1" width="173.470703125" height="20" fill="#dfdfdf" rx="10" ry="10" stroke="#929292" stroke-width="1"></rect><circle class="markmap-node-circle" cx="171.470703125" stroke="#929292" r="4.5" style="display: none;"></circle><text class="markmap-node-text" x="10" dy="3" text-anchor="start" style="fill-opacity: 1;">Mortgage Market Tightens (June)</text></g><g class="markmap-node" transform="translate(529.919921875,-426.25)"><rect class="markmap-node-rect" y="-10" x="-1" width="165.1796875" height="20" fill="#dfdfdf" rx="10" ry="10" stroke="#929292" stroke-width="1"></rect><circle class="markmap-node-circle" cx="163.1796875" stroke="#929292" r="4.5" style="display: none;"></circle><text class="markmap-node-text" x="10" dy="3" text-anchor="start" style="fill-opacity: 1;">Fed's Ninth Debt Facility (June)</text></g><g class="markmap-node" transform="translate(275.8271484375,-413.75)"><rect class="markmap-node-rect" y="-10" x="-1" width="196.0927734375" height="20" fill="#dfdfdf" rx="10" ry="10" stroke="#929292" stroke-width="1"></rect><circle class="markmap-node-circle" cx="194.0927734375" stroke="#929292" r="4.5"></circle><text class="markmap-node-text" x="10" dy="3" text-anchor="start" style="fill-opacity: 1;">Bond Market Supported by Fed (June)</text></g><g class="markmap-node" transform="translate(275.8271484375,-438.75)"><rect class="markmap-node-rect" y="-10" x="-1" width="160.521484375" height="20" fill="#dfdfdf" rx="10" ry="10" stroke="#929292" stroke-width="1"></rect><circle class="markmap-node-circle" cx="158.521484375" stroke="#929292" r="4.5" style="display: none;"></circle><text class="markmap-node-text" x="10" dy="3" text-anchor="start" style="fill-opacity: 1;">Canada Notched Down (June)</text></g><g class="markmap-node" transform="translate(275.8271484375,-463.75)"><rect class="markmap-node-rect" y="-10" x="-1" width="161.849609375" height="20" fill="#dfdfdf" rx="10" ry="10" stroke="#929292" stroke-width="1"></rect><circle class="markmap-node-circle" cx="159.849609375" stroke="#929292" r="4.5" style="display: none;"></circle><text class="markmap-node-text" x="10" dy="3" text-anchor="start" style="fill-opacity: 1;">CLO and CDO's Return (June)</text></g><g class="markmap-node" transform="translate(129.0146484375,-383.75)"><rect class="markmap-node-rect" y="-10" x="-1" width="88.8125" height="20" fill="#dfdfdf" rx="10" ry="10" stroke="#929292" stroke-width="1"></rect><circle class="markmap-node-circle" cx="86.8125" stroke="#929292" r="4.5"></circle><text class="markmap-node-text" x="10" dy="3" text-anchor="start" style="fill-opacity: 1;">Rates / Bonds</text></g><g class="markmap-node" transform="translate(0,0)"><rect class="markmap-node-rect" y="-10" x="-1" width="71.0146484375" height="20" fill="#dfdfdf" rx="10" ry="10" stroke="#929292" stroke-width="1"></rect><circle class="markmap-node-circle" cx="69.0146484375" stroke="#929292" r="4.5"></circle><text class="markmap-node-text" x="10" dy="3" text-anchor="start" style="fill-opacity: 1;">YTD_Map</text></g></g>
</svg>